<svg id="Layer_1" data-name="Layer 1" xmlns="http://www.w3.org/2000/svg" viewBox="0 0 500 500"><defs><style>.cls-1{fill:#fff;}.cls-2{fill:#62b5e5;}.cls-3{fill:none;stroke:#000;stroke-linecap:round;stroke-linejoin:round;stroke-width:20px;}.cls-4{fill:#020303;opacity:0.15;}</style></defs><title>syringe</title><path class="cls-1" d="M214.31,102.87h65.9a25.85,25.85,0,0,1,25.85,25.85V368.22a0,0,0,0,1,0,0H188.46a0,0,0,0,1,0,0V128.72A25.85,25.85,0,0,1,214.31,102.87Z" transform="translate(238.98 -105.85) rotate(45)"/><path class="cls-2" d="M363.47,164.12,377.63,150a31.66,31.66,0,0,0-44.77-44.78l-14.17,14.17Z"/><line class="cls-3" x1="377.63" y1="105.17" x2="454.89" y2="27.91"/><line class="cls-3" x1="81.83" y1="257.75" x2="225.05" y2="400.98"/><rect class="cls-1" x="92.36" y="317.18" width="63.32" height="83.21" transform="translate(290.02 17.39) rotate(45)"/><rect class="cls-4" x="122.47" y="329.65" width="28.05" height="83.21" transform="translate(-29.51 730.28) rotate(-135)"/><rect class="cls-1" x="-8.45" y="381.74" width="174.89" height="44.15" rx="22.07" ry="22.07" transform="translate(308.67 62.42) rotate(45)"/><path class="cls-2" d="M366.15,166.8,316,116.65a23.35,23.35,0,0,0-33,0L205.68,194l83.16,83.15,77.31-77.31A23.33,23.33,0,0,0,366.15,166.8Z"/><path class="cls-2" d="M480.21,154.34a37.23,37.23,0,1,1-56.31,48.71c-13.46-15.55-5.44-48.11,20.31-88.31C444.21,114.74,466.76,138.79,480.21,154.34Z"/><path class="cls-4" d="M480.21,154.34c-13.45-15.55-36-39.6-36-39.6-1.16,1.81-2.24,3.59-3.33,5.37,4.45,4.92,8.88,9.88,12.61,14.19a37.08,37.08,0,0,1-34,60.95,24.4,24.4,0,0,0,4.44,7.8,37.23,37.23,0,1,0,56.31-48.71Z"/><line class="cls-3" x1="263.09" y1="136.55" x2="296.14" y2="169.6"/><line class="cls-3" x1="148.11" y1="251.54" x2="181.16" y2="284.59"/><line class="cls-3" x1="234.47" y1="165.18" x2="253.66" y2="184.37"/><line class="cls-3" x1="176.18" y1="223.46" x2="195.37" y2="242.65"/><path class="cls-4" d="M358,96.2a31.73,31.73,0,0,1-7.11,33.71l-14.16,14.17,2.68,2.68a23.33,23.33,0,0,1,0,33l-77.31,77.32-90.48,90.47L195,370.94l93.82-93.82,77.31-77.31a23.33,23.33,0,0,0,0-33l-2.68-2.68L377.63,150a31.75,31.75,0,0,0,0-44.78A31.37,31.37,0,0,0,358,96.2Z"/><path class="cls-3" d="M214.31,102.87h65.9a25.85,25.85,0,0,1,25.85,25.85V368.22a0,0,0,0,1,0,0H188.46a0,0,0,0,1,0,0V128.72A25.85,25.85,0,0,1,214.31,102.87Z" transform="translate(238.98 -105.85) rotate(45)"/><path class="cls-3" d="M363.47,164.12,377.63,150a31.66,31.66,0,0,0-44.77-44.78l-14.17,14.17Z"/><rect class="cls-3" x="92.36" y="317.18" width="63.32" height="83.21" transform="translate(290.02 17.39) rotate(45)"/><rect class="cls-3" x="-8.45" y="381.74" width="174.89" height="44.15" rx="22.07" ry="22.07" transform="translate(308.67 62.42) rotate(45)"/><path class="cls-3" d="M366.15,166.8,316,116.65a23.35,23.35,0,0,0-33,0L205.68,194l83.16,83.15,77.31-77.31A23.33,23.33,0,0,0,366.15,166.8Z"/><path class="cls-3" d="M480.21,154.34a37.23,37.23,0,1,1-56.31,48.71c-13.46-15.55-5.44-48.11,20.31-88.31C444.21,114.74,466.76,138.79,480.21,154.34Z"/></svg>