<svg width="1280" height="640" xmlns="http://www.w3.org/2000/svg">
 <defs>
  <style>.cls-1{fill:#fff;}.cls-2{fill:#62b5e5;}.cls-3{fill:none;stroke:#000;stroke-linecap:round;stroke-linejoin:round;stroke-width:20px;}.cls-4{fill:#020303;opacity:0.15;}</style>
 </defs>
 <title>syringe</title>
 <g>
  <title>background</title>
  <rect fill="none" id="canvas_background" height="642" width="1282" y="-1" x="-1"/>
 </g>
 <g>
  <title>Layer 1</title>
  <path id="svg_1" transform="rotate(45 560.97998046875,-44.849998474121094) " d="m775.289996,58.020002l65.9,0a25.85,25.85 0 0 1 25.85,25.85l0,239.5a0,0 0 0 1 0,0l-117.6,0a0,0 0 0 1 0,0l0,-239.5a25.85,25.85 0 0 1 25.85,-25.85z" class="cls-1"/>
  <path id="svg_2" d="m685.47,225.12l14.16,-14.12a31.66,31.66 0 0 0 -44.77,-44.78l-14.17,14.17l44.78,44.73z" class="cls-2"/>
  <line id="svg_3" y2="88.91" x2="776.89" y1="166.17" x1="699.63" class="cls-3"/>
  <line id="svg_4" y2="461.98" x2="547.05" y1="318.75" x1="403.83" class="cls-3"/>
  <rect id="svg_5" transform="rotate(45 612.0200195312501,78.38999938964844) " height="83.21" width="63.32" y="395.569999" x="704.379989" class="cls-1"/>
  <rect id="svg_6" transform="rotate(-135 292.48999023437494,791.2800292968749) " height="83.21" width="28.05" y="1120.930029" x="414.96" class="cls-4"/>
  <rect id="svg_7" transform="rotate(45 630.6700439453124,123.41999816894527) " ry="22.07" rx="22.07" height="44.15" width="174.89" y="505.159998" x="622.220013" class="cls-1"/>
  <path id="svg_8" d="m688.15,227.8l-50.15,-50.15a23.35,23.35 0 0 0 -33,0l-77.32,77.35l83.16,83.15l77.31,-77.31a23.33,23.33 0 0 0 0,-33.04z" class="cls-2"/>
  <path id="svg_9" d="m802.21,215.34a37.23,37.23 0 1 1 -56.31,48.71c-13.46,-15.55 -5.44,-48.11 20.31,-88.31c0,0 22.55,24.05 36,39.6z" class="cls-2"/>
  <path id="svg_10" d="m802.21,215.34c-13.45,-15.55 -36,-39.6 -36,-39.6c-1.16,1.81 -2.24,3.59 -3.33,5.37c4.45,4.92 8.88,9.88 12.61,14.19a37.08,37.08 0 0 1 -34,60.95a24.4,24.4 0 0 0 4.44,7.8a37.23,37.23 0 1 0 56.31,-48.71l-0.03,0z" class="cls-4"/>
  <line id="svg_11" y2="230.6" x2="618.14" y1="197.55" x1="585.09" class="cls-3"/>
  <line id="svg_12" y2="345.59" x2="503.16" y1="312.54" x1="470.11" class="cls-3"/>
  <line id="svg_13" y2="245.37" x2="575.66" y1="226.18" x1="556.47" class="cls-3"/>
  <line id="svg_14" y2="303.65" x2="517.37" y1="284.46" x1="498.18" class="cls-3"/>
  <path id="svg_15" d="m680,157.2a31.73,31.73 0 0 1 -7.11,33.71l-14.16,14.17l2.68,2.68a23.33,23.33 0 0 1 0,33l-77.31,77.32l-90.48,90.47l23.38,23.39l93.82,-93.82l77.31,-77.31a23.33,23.33 0 0 0 0,-33l-2.68,-2.68l14.18,-14.13a31.75,31.75 0 0 0 0,-44.78a31.37,31.37 0 0 0 -19.63,-9.02z" class="cls-4"/>
  <path id="svg_16" transform="rotate(45 560.97998046875,-44.849998474121094) " d="m775.289996,58.020002l65.9,0a25.85,25.85 0 0 1 25.85,25.85l0,239.5a0,0 0 0 1 0,0l-117.6,0a0,0 0 0 1 0,0l0,-239.5a25.85,25.85 0 0 1 25.85,-25.85z" class="cls-3"/>
  <path id="svg_17" d="m685.47,225.12l14.16,-14.12a31.66,31.66 0 0 0 -44.77,-44.78l-14.17,14.17l44.78,44.73z" class="cls-3"/>
  <rect id="svg_18" transform="rotate(45 612.0200195312501,78.38999938964844) " height="83.21" width="63.32" y="395.569999" x="704.379989" class="cls-3"/>
  <rect id="svg_19" transform="rotate(45 630.6700439453124,123.41999816894527) " ry="22.07" rx="22.07" height="44.15" width="174.89" y="505.159998" x="622.220013" class="cls-3"/>
  <path id="svg_20" d="m688.15,227.8l-50.15,-50.15a23.35,23.35 0 0 0 -33,0l-77.32,77.35l83.16,83.15l77.31,-77.31a23.33,23.33 0 0 0 0,-33.04z" class="cls-3"/>
  <path id="svg_21" d="m802.21,215.34a37.23,37.23 0 1 1 -56.31,48.71c-13.46,-15.55 -5.44,-48.11 20.31,-88.31c0,0 22.55,24.05 36,39.6z" class="cls-3"/>
 </g>
</svg>